<svg width="10" height="11" viewBox="0 0 10 11" fill="none" xmlns="http://www.w3.org/2000/svg">
<path d="M2.14397 8C1.14173 8.20585 0.5 8.52215 0.5 8.87685C0.5 9.49715 2.46274 10 4.88391 10C7.30509 10 9.26782 9.49715 9.26782 8.87685C9.26782 8.52215 8.62607 8.20585 7.62385 8" stroke="#818181" stroke-linecap="round"/>
<path d="M5.57281 7.7468C5.38798 7.9092 5.14094 8 4.88388 8C4.62676 8 4.37973 7.9092 4.1949 7.7468C2.50238 6.2504 0.234193 4.57875 1.34032 2.15187C1.93839 0.83966 3.37403 0 4.88388 0C6.3937 0 7.82932 0.839665 8.42739 2.15187C9.53214 4.5757 7.26949 6.25555 5.57281 7.7468Z" fill="#818181"/>
<path d="M6.25333 3.5C6.25333 4.19035 5.64006 4.75 4.88356 4.75C4.12707 4.75 3.51379 4.19035 3.51379 3.5C3.51379 2.80964 4.12707 2.25 4.88356 2.25C5.64006 2.25 6.25333 2.80964 6.25333 3.5Z" fill="white"/>
</svg>
